{
    "asset" : {
        "generator" : "Khronos glTF Blender I/O v3.2.40",
        "version" : "2.0"
    },
    "scene" : 0,
    "scenes" : [
        {
            "name" : "Scene",
            "nodes" : [
                0
            ]
        }
    ],
    "nodes" : [
        {
            "mesh" : 0,
            "name" : "Cone",
            "rotation" : [
                0.7071068286895752,
                0,
                0,
                0.7071067094802856
            ],
            "scale" : [
                0.4300000071525574,
                0.4800000786781311,
                0.031000003218650818
            ]
        }
    ],
    "materials" : [
        {
            "doubleSided" : true,
            "name" : "Material.001",
            "pbrMetallicRoughness" : {
                "baseColorFactor" : [
                    0.8000000715255737,
                    0,
                    0.028618406504392624,
                    1
                ],
                "metallicFactor" : 0,
                "roughnessFactor" : 0.5
            }
        },
        {
            "doubleSided" : true,
            "name" : "Material.002",
            "pbrMetallicRoughness" : {
                "baseColorTexture" : {
                    "index" : 0
                },
                "metallicFactor" : 0,
                "roughnessFactor" : 0.4000000059604645
            }
        },
        {
            "doubleSided" : true,
            "name" : "lambert1",
            "normalTexture" : {
                "index" : 1
            },
            "pbrMetallicRoughness" : {
                "baseColorTexture" : {
                    "index" : 2
                },
                "metallicRoughnessTexture" : {
                    "index" : 3
                }
            }
        }
    ],
    "meshes" : [
        {
            "name" : "Cone",
            "primitives" : [
                {
                    "attributes" : {
                        "POSITION" : 0,
                        "NORMAL" : 1,
                        "TEXCOORD_0" : 2
                    },
                    "indices" : 3,
                    "material" : 0
                },
                {
                    "attributes" : {
                        "POSITION" : 4,
                        "NORMAL" : 5,
                        "TEXCOORD_0" : 6
                    },
                    "indices" : 7,
                    "material" : 1
                },
                {
                    "attributes" : {
                        "POSITION" : 8,
                        "NORMAL" : 9,
                        "TEXCOORD_0" : 10
                    },
                    "indices" : 11,
                    "material" : 2
                }
            ]
        }
    ],
    "textures" : [
        {
            "sampler" : 0,
            "source" : 0
        },
        {
            "sampler" : 1,
            "source" : 1
        },
        {
            "sampler" : 1,
            "source" : 2
        },
        {
            "sampler" : 1,
            "source" : 3
        }
    ],
    "images" : [
        {
            "bufferView" : 8,
            "mimeType" : "image/png",
            "name" : "Image_0"
        },
        {
            "bufferView" : 13,
            "mimeType" : "image/png",
            "name" : "lambert1_normal"
        },
        {
            "bufferView" : 14,
            "mimeType" : "image/png",
            "name" : "lambert1_baseColor"
        },
        {
            "bufferView" : 15,
            "mimeType" : "image/png",
            "name" : "lambert1_metallicRoughness"
        }
    ],
    "accessors" : [
        {
            "bufferView" : 0,
            "componentType" : 5126,
            "count" : 924,
            "max" : [
                0.3207572400569916,
                2.7107021808624268,
                5.589367866516113
            ],
            "min" : [
                -0.36596405506134033,
                1.3456408977508545,
                -5.043736457824707
            ],
            "type" : "VEC3"
        },
        {
            "bufferView" : 1,
            "componentType" : 5126,
            "count" : 924,
            "type" : "VEC3"
        },
        {
            "bufferView" : 2,
            "componentType" : 5126,
            "count" : 924,
            "type" : "VEC2"
        },
        {
            "bufferView" : 3,
            "componentType" : 5123,
            "count" : 1068,
            "type" : "SCALAR"
        },
        {
            "bufferView" : 4,
            "componentType" : 5126,
            "count" : 56,
            "max" : [
                0.8779566287994385,
                0.710929811000824,
                12.09677505493164
            ],
            "min" : [
                -0.8662293553352356,
                -0.9817785024642944,
                -12.09677505493164
            ],
            "type" : "VEC3"
        },
        {
            "bufferView" : 5,
            "componentType" : 5126,
            "count" : 56,
            "type" : "VEC3"
        },
        {
            "bufferView" : 6,
            "componentType" : 5126,
            "count" : 56,
            "type" : "VEC2"
        },
        {
            "bufferView" : 7,
            "componentType" : 5123,
            "count" : 72,
            "type" : "SCALAR"
        },
        {
            "bufferView" : 9,
            "componentType" : 5126,
            "count" : 4057,
            "max" : [
                0.12977764010429382,
                0.1312081217765808,
                2.563953399658203
            ],
            "min" : [
                -0.14209197461605072,
                -0.1135815754532814,
                -2.8419108390808105
            ],
            "type" : "VEC3"
        },
        {
            "bufferView" : 10,
            "componentType" : 5126,
            "count" : 4057,
            "type" : "VEC3"
        },
        {
            "bufferView" : 11,
            "componentType" : 5126,
            "count" : 4057,
            "type" : "VEC2"
        },
        {
            "bufferView" : 12,
            "componentType" : 5123,
            "count" : 19038,
            "type" : "SCALAR"
        }
    ],
    "bufferViews" : [
        {
            "buffer" : 0,
            "byteLength" : 11088,
            "byteOffset" : 0
        },
        {
            "buffer" : 0,
            "byteLength" : 11088,
            "byteOffset" : 11088
        },
        {
            "buffer" : 0,
            "byteLength" : 7392,
            "byteOffset" : 22176
        },
        {
            "buffer" : 0,
            "byteLength" : 2136,
            "byteOffset" : 29568
        },
        {
            "buffer" : 0,
            "byteLength" : 672,
            "byteOffset" : 31704
        },
        {
            "buffer" : 0,
            "byteLength" : 672,
            "byteOffset" : 32376
        },
        {
            "buffer" : 0,
            "byteLength" : 448,
            "byteOffset" : 33048
        },
        {
            "buffer" : 0,
            "byteLength" : 144,
            "byteOffset" : 33496
        },
        {
            "buffer" : 0,
            "byteLength" : 3235,
            "byteOffset" : 33640
        },
        {
            "buffer" : 0,
            "byteLength" : 48684,
            "byteOffset" : 36876
        },
        {
            "buffer" : 0,
            "byteLength" : 48684,
            "byteOffset" : 85560
        },
        {
            "buffer" : 0,
            "byteLength" : 32456,
            "byteOffset" : 134244
        },
        {
            "buffer" : 0,
            "byteLength" : 38076,
            "byteOffset" : 166700
        },
        {
            "buffer" : 0,
            "byteLength" : 226,
            "byteOffset" : 204776
        },
        {
            "buffer" : 0,
            "byteLength" : 88918,
            "byteOffset" : 205004
        },
        {
            "buffer" : 0,
            "byteLength" : 44675,
            "byteOffset" : 293924
        }
    ],
    "samplers" : [
        {
            "magFilter" : 9728,
            "minFilter" : 9984
        },
        {
            "magFilter" : 9729,
            "minFilter" : 9987
        }
    ],
    "buffers" : [
        {
            "byteLength" : 338600,
            "uri" : "data:application/octet-stream;base64,"
        }
    ]
}
